<svg xmlns="http://www.w3.org/2000/svg" viewBox="0 0 1321 3026"><defs><style>.cls-1{isolation:isolate;}.cls-2{fill:#142f6d;}.cls-3{fill:#002f94;opacity:0.26;mix-blend-mode:screen;}</style></defs><title>星空背景</title><g class="cls-1"><g id="圖層_2" data-name="圖層 2"><rect class="cls-2" x="-894.9" y="826.99" width="3110.8" height="1379.15" transform="translate(2177.07 856.07) rotate(90)"/></g><g id="圖層_4" data-name="圖層 4"><path class="cls-3" d="M273.25,3076.42c-21.52-123.16-38.71-316.62,22.84-532.87,82.62-290.28,222.9-325.72,228.37-525.25,8.33-304.32-313.1-401.21-289.27-677.49,14.93-173.11,150.24-240.72,308.3-426.29C697.77,733.39,872.43,441.4,943.13-38.83H1232.4c-6.62,556.24-172,803.7-323.52,926.7C804,973,748.67,963.59,695.73,1047.73c-164.19,261,209.86,602.38,247.4,1096.18,15.76,207.15-23.25,499.93-270.23,867.8Z"/></g></g></svg>